<svg viewBox="0 0 24 24" xmlns="http://www.w3.org/2000/svg" fill="#000000">
    <g id="SVGRepo_bgCarrier" stroke-width="0"></g>
    <g id="SVGRepo_tracerCarrier" stroke-linecap="round" stroke-linejoin="round" stroke="#CCCCCC"
       stroke-width="0.144"></g>
    <g id="SVGRepo_iconCarrier">
        <defs>
            <style>.cls-1{fill:none;stroke:#000000;stroke-linecap:round;stroke-linejoin:round;stroke-width:1.5px;}
            </style>
        </defs>
        <g id="ic-sport-winner-2" data-name="ic-sport-winner">
            <path class="cls-1"
                  d="M9.2,6h5.6a.2.2,0,0,1,.2.2V18a0,0,0,0,1,0,0H9a0,0,0,0,1,0,0V6.2A.2.2,0,0,1,9.2,6Z"></path>
            <path class="cls-1" d="M3,11H8.8a.2.2,0,0,1,.2.2v6.6a.2.2,0,0,1-.2.2H3a0,0,0,0,1,0,0V11A0,0,0,0,1,3,11Z"
                  transform="translate(12 29) rotate(180)"></path>
            <path class="cls-1"
                  d="M15.2,13H21a0,0,0,0,1,0,0v5a0,0,0,0,1,0,0H15.2a.2.2,0,0,1-.2-.2V13.2A.2.2,0,0,1,15.2,13Z"
                  transform="translate(36 31) rotate(180)"></path>
        </g>
    </g>
</svg>