<svg width="279.27" height="40" viewBox="0 0 384 55" fill="none" xmlns="http://www.w3.org/2000/svg">
    <path d="M4.71094 9.57031H9.42188V44H4.71094V9.57031ZM31.5234 8.63281C35.8828 8.63281 39.2656 9.78125 41.6719 12.0781C44.0781 14.375 45.4141 16.9844 45.6797 19.9062H41.1328C40.6172 17.6875 39.5859 15.9297 38.0391 14.6328C36.5078 13.3359 34.3516 12.6875 31.5703 12.6875C28.1797 12.6875 25.4375 13.8828 23.3438 16.2734C21.2656 18.6484 20.2266 22.2969 20.2266 27.2188C20.2266 31.25 21.1641 34.5234 23.0391 37.0391C24.9297 39.5391 27.7422 40.7891 31.4766 40.7891C34.9141 40.7891 37.5312 39.4688 39.3281 36.8281C40.2812 35.4375 40.9922 33.6094 41.4609 31.3438H46.0078C45.6016 34.9688 44.2578 38.0078 41.9766 40.4609C39.2422 43.4141 35.5547 44.8906 30.9141 44.8906C26.9141 44.8906 23.5547 43.6797 20.8359 41.2578C17.2578 38.0547 15.4688 33.1094 15.4688 26.4219C15.4688 21.3438 16.8125 17.1797 19.5 13.9297C22.4062 10.3984 26.4141 8.63281 31.5234 8.63281ZM52.1484 9.57031H67.6406C70.7031 9.57031 73.1719 10.4375 75.0469 12.1719C76.9219 13.8906 77.8594 16.3125 77.8594 19.4375C77.8594 22.125 77.0234 24.4688 75.3516 26.4688C73.6797 28.4531 71.1094 29.4453 67.6406 29.4453H56.8125V44H52.1484V9.57031ZM73.1484 19.4609C73.1484 16.9297 72.2109 15.2109 70.3359 14.3047C69.3047 13.8203 67.8906 13.5781 66.0938 13.5781H56.8125V25.5078H66.0938C68.1875 25.5078 69.8828 25.0625 71.1797 24.1719C72.4922 23.2812 73.1484 21.7109 73.1484 19.4609ZM98.2266 8.63281C102.586 8.63281 105.969 9.78125 108.375 12.0781C110.781 14.375 112.117 16.9844 112.383 19.9062H107.836C107.32 17.6875 106.289 15.9297 104.742 14.6328C103.211 13.3359 101.055 12.6875 98.2734 12.6875C94.8828 12.6875 92.1406 13.8828 90.0469 16.2734C87.9688 18.6484 86.9297 22.2969 86.9297 27.2188C86.9297 31.25 87.8672 34.5234 89.7422 37.0391C91.6328 39.5391 94.4453 40.7891 98.1797 40.7891C101.617 40.7891 104.234 39.4688 106.031 36.8281C106.984 35.4375 107.695 33.6094 108.164 31.3438H112.711C112.305 34.9688 110.961 38.0078 108.68 40.4609C105.945 43.4141 102.258 44.8906 97.6172 44.8906C93.6172 44.8906 90.2578 43.6797 87.5391 41.2578C83.9609 38.0547 82.1719 33.1094 82.1719 26.4219C82.1719 21.3438 83.5156 17.1797 86.2031 13.9297C89.1094 10.3984 93.1172 8.63281 98.2266 8.63281Z" fill="black"/>
    <rect width="55" height="55" transform="translate(115)" fill="white"/>
    <path d="M140.208 45.6271L137.917 50.4166H147.083L144.792 45.6271C153.958 44.1375 160.833 33.5271 160.833 22.9166C160.833 18.0543 158.902 13.3912 155.464 9.95302C152.025 6.51486 147.362 4.58331 142.5 4.58331C137.638 4.58331 132.975 6.51486 129.536 9.95302C126.098 13.3912 124.167 18.0543 124.167 22.9166C124.167 33.5271 131.225 44.1375 140.208 45.6271ZM142.5 9.73956V13.1771C139.919 13.1831 137.445 14.2112 135.62 16.0364C133.795 17.8616 132.766 20.3354 132.76 22.9166H129.323C129.329 19.4237 130.719 16.0756 133.189 13.6057C135.659 11.1359 139.007 9.74562 142.5 9.73956Z" fill="black"/>
    <path d="M191.328 29.8906L186.102 14.6797L180.547 29.8906H191.328ZM183.664 9.57031H188.938L201.43 44H196.32L192.828 33.6875H179.211L175.484 44H170.703L183.664 9.57031ZM221.68 25.3438C223.867 25.3438 225.594 24.9062 226.859 24.0312C228.141 23.1562 228.781 21.5781 228.781 19.2969C228.781 16.8438 227.891 15.1719 226.109 14.2812C225.156 13.8125 223.883 13.5781 222.289 13.5781H210.898V25.3438H221.68ZM206.234 9.57031H222.172C224.797 9.57031 226.961 9.95312 228.664 10.7188C231.898 12.1875 233.516 14.8984 233.516 18.8516C233.516 20.9141 233.086 22.6016 232.227 23.9141C231.383 25.2266 230.195 26.2812 228.664 27.0781C230.008 27.625 231.016 28.3438 231.688 29.2344C232.375 30.125 232.758 31.5703 232.836 33.5703L233 38.1875C233.047 39.5 233.156 40.4766 233.328 41.1172C233.609 42.2109 234.109 42.9141 234.828 43.2266V44H229.109C228.953 43.7031 228.828 43.3203 228.734 42.8516C228.641 42.3828 228.562 41.4766 228.5 40.1328L228.219 34.3906C228.109 32.1406 227.273 30.6328 225.711 29.8672C224.82 29.4453 223.422 29.2344 221.516 29.2344H210.898V44H206.234V9.57031ZM254.867 8.63281C259.227 8.63281 262.609 9.78125 265.016 12.0781C267.422 14.375 268.758 16.9844 269.023 19.9062H264.477C263.961 17.6875 262.93 15.9297 261.383 14.6328C259.852 13.3359 257.695 12.6875 254.914 12.6875C251.523 12.6875 248.781 13.8828 246.688 16.2734C244.609 18.6484 243.57 22.2969 243.57 27.2188C243.57 31.25 244.508 34.5234 246.383 37.0391C248.273 39.5391 251.086 40.7891 254.82 40.7891C258.258 40.7891 260.875 39.4688 262.672 36.8281C263.625 35.4375 264.336 33.6094 264.805 31.3438H269.352C268.945 34.9688 267.602 38.0078 265.32 40.4609C262.586 43.4141 258.898 44.8906 254.258 44.8906C250.258 44.8906 246.898 43.6797 244.18 41.2578C240.602 38.0547 238.812 33.1094 238.812 26.4219C238.812 21.3438 240.156 17.1797 242.844 13.9297C245.75 10.3984 249.758 8.63281 254.867 8.63281ZM275.164 9.57031H279.875V23.7969H297.781V9.57031H302.492V44H297.781V27.8984H279.875V44H275.164V9.57031ZM310.789 9.57031H315.5V44H310.789V9.57031ZM325.812 9.57031L335.703 38.8906L345.477 9.57031H350.703L338.141 44H333.195L320.656 9.57031H325.812ZM355.555 9.57031H380.656V13.7891H360.102V24.2422H379.109V28.2266H360.102V39.8984H381.008V44H355.555V9.57031Z" fill="black"/>
</svg>
